<?xml version="1.0" encoding="UTF-8" standalone="no"?>
<!DOCTYPE svg PUBLIC "-//W3C//DTD SVG 1.1//EN"
 "http://www.w3.org/Graphics/SVG/1.1/DTD/svg11.dtd">
<!-- Generated by graphviz version 2.50.0 (0)
 -->
<!-- Title: G Pages: 1 -->
<svg width="705pt" height="395pt"
 viewBox="0.00 0.00 705.24 395.00" xmlns="http://www.w3.org/2000/svg" xmlns:xlink="http://www.w3.org/1999/xlink">
<g id="graph0" class="graph" transform="scale(1 1) rotate(0) translate(4 391)">
<title>G</title>
<polygon fill="#eeeeee" stroke="transparent" points="-4,4 -4,-391 701.24,-391 701.24,4 -4,4"/>
<g id="clust1" class="cluster">
<title>cluster_inputs</title>
<polygon fill="#eeeeee" stroke="black" stroke-dasharray="5,2" points="8,-303 8,-379 658,-379 658,-303 8,-303"/>
<text text-anchor="middle" x="603" y="-310.8" font-family="Times,serif" font-size="14.00">Workflow Inputs</text>
</g>
<g id="clust2" class="cluster">
<title>cluster_outputs</title>
<polygon fill="#eeeeee" stroke="black" stroke-dasharray="5,2" points="166,-8 166,-84 631,-84 631,-8 166,-8"/>
<text text-anchor="middle" x="571.5" y="-15.8" font-family="Times,serif" font-size="14.00">Workflow Outputs</text>
</g>
<!-- mapping_reads -->
<g id="node1" class="node">
<title>mapping_reads</title>
<polygon fill="lightgoldenrodyellow" stroke="black" points="175,-185.5 175,-221.5 275,-221.5 275,-185.5 175,-185.5"/>
<text text-anchor="middle" x="225" y="-199.8" font-family="Times,serif" font-size="14.00">mapping_reads</text>
</g>
<!-- index_alignment -->
<g id="node2" class="node">
<title>index_alignment</title>
<polygon fill="lightgoldenrodyellow" stroke="black" points="171,-112.5 171,-148.5 279,-148.5 279,-112.5 171,-112.5"/>
<text text-anchor="middle" x="225" y="-126.8" font-family="Times,serif" font-size="14.00">index_alignment</text>
</g>
<!-- mapping_reads&#45;&gt;index_alignment -->
<g id="edge1" class="edge">
<title>mapping_reads&#45;&gt;index_alignment</title>
<path fill="none" stroke="black" d="M225,-185.31C225,-177.29 225,-167.55 225,-158.57"/>
<polygon fill="black" stroke="black" points="228.5,-158.53 225,-148.53 221.5,-158.53 228.5,-158.53"/>
</g>
<!-- bam_sorted_indexed -->
<g id="node10" class="node">
<title>bam_sorted_indexed</title>
<polygon fill="#94ddf4" stroke="black" points="174,-39.5 174,-75.5 304,-75.5 304,-39.5 174,-39.5"/>
<text text-anchor="middle" x="239" y="-53.8" font-family="Times,serif" font-size="14.00">bam_sorted_indexed</text>
</g>
<!-- index_alignment&#45;&gt;bam_sorted_indexed -->
<g id="edge10" class="edge">
<title>index_alignment&#45;&gt;bam_sorted_indexed</title>
<path fill="none" stroke="black" d="M228.39,-112.31C229.97,-104.29 231.89,-94.55 233.66,-85.57"/>
<polygon fill="black" stroke="black" points="237.14,-86.02 235.64,-75.53 230.27,-84.66 237.14,-86.02"/>
</g>
<!-- trim_low_quality_bases -->
<g id="node3" class="node">
<title>trim_low_quality_bases</title>
<polygon fill="lightgoldenrodyellow" stroke="black" points="229.5,-258.5 229.5,-294.5 376.5,-294.5 376.5,-258.5 229.5,-258.5"/>
<text text-anchor="middle" x="303" y="-272.8" font-family="Times,serif" font-size="14.00">trim_low_quality_bases</text>
</g>
<!-- trim_low_quality_bases&#45;&gt;mapping_reads -->
<g id="edge2" class="edge">
<title>trim_low_quality_bases&#45;&gt;mapping_reads</title>
<path fill="none" stroke="black" d="M278.24,-258.31C267.54,-249.42 255.26,-238.41 245.12,-228.67"/>
<polygon fill="black" stroke="black" points="247.43,-226.04 237.85,-221.53 242.53,-231.03 247.43,-226.04"/>
</g>
<!-- trim_low_quality_bases&#45;&gt;mapping_reads -->
<g id="edge3" class="edge">
<title>trim_low_quality_bases&#45;&gt;mapping_reads</title>
<path fill="none" stroke="black" d="M290,-258.31C280.98,-249.24 268.78,-237.98 257.33,-228.1"/>
<polygon fill="black" stroke="black" points="259.46,-225.32 249.57,-221.53 254.94,-230.66 259.46,-225.32"/>
</g>
<!-- ref_fruitfly_genome -->
<g id="node4" class="node">
<title>ref_fruitfly_genome</title>
<polygon fill="#94ddf4" stroke="black" points="16.5,-334.5 16.5,-370.5 143.5,-370.5 143.5,-334.5 16.5,-334.5"/>
<text text-anchor="middle" x="80" y="-348.8" font-family="Times,serif" font-size="14.00">ref_fruitfly_genome</text>
</g>
<!-- ref_fruitfly_genome&#45;&gt;mapping_reads -->
<g id="edge4" class="edge">
<title>ref_fruitfly_genome&#45;&gt;mapping_reads</title>
<path fill="none" stroke="black" d="M96.92,-334.35C122.57,-308.35 171.41,-258.83 200.81,-229.03"/>
<polygon fill="black" stroke="black" points="203.66,-231.12 208.19,-221.54 198.68,-226.2 203.66,-231.12"/>
</g>
<!-- fruitfly_gene_model -->
<g id="node5" class="node">
<title>fruitfly_gene_model</title>
<polygon fill="#94ddf4" stroke="black" points="162,-334.5 162,-370.5 290,-370.5 290,-334.5 162,-334.5"/>
<text text-anchor="middle" x="226" y="-348.8" font-family="Times,serif" font-size="14.00">fruitfly_gene_model</text>
</g>
<!-- fruitfly_gene_model&#45;&gt;mapping_reads -->
<g id="edge5" class="edge">
<title>fruitfly_gene_model&#45;&gt;mapping_reads</title>
<path fill="none" stroke="black" d="M223.72,-334.48C222.33,-323.28 220.7,-308.3 220,-295 219.13,-278.58 219.23,-274.43 220,-258 220.4,-249.48 221.15,-240.23 221.95,-231.85"/>
<polygon fill="black" stroke="black" points="225.44,-232.12 222.97,-221.82 218.48,-231.41 225.44,-232.12"/>
</g>
<!-- rna_reads_fruitfly_forward -->
<g id="node6" class="node">
<title>rna_reads_fruitfly_forward</title>
<polygon fill="#94ddf4" stroke="black" points="308,-334.5 308,-370.5 472,-370.5 472,-334.5 308,-334.5"/>
<text text-anchor="middle" x="390" y="-348.8" font-family="Times,serif" font-size="14.00">rna_reads_fruitfly_forward</text>
</g>
<!-- rna_reads_fruitfly_forward&#45;&gt;trim_low_quality_bases -->
<g id="edge7" class="edge">
<title>rna_reads_fruitfly_forward&#45;&gt;trim_low_quality_bases</title>
<path fill="none" stroke="black" d="M369.82,-334.34C358.29,-324.53 343.66,-312.08 331.03,-301.34"/>
<polygon fill="black" stroke="black" points="332.95,-298.38 323.07,-294.57 328.42,-303.72 332.95,-298.38"/>
</g>
<!-- quality_control_forward -->
<g id="node8" class="node">
<title>quality_control_forward</title>
<ellipse fill="none" stroke="black" cx="394" cy="-130.5" rx="96.68" ry="18"/>
<text text-anchor="middle" x="394" y="-126.8" font-family="Times,serif" font-size="14.00">quality_control_forward</text>
</g>
<!-- rna_reads_fruitfly_forward&#45;&gt;quality_control_forward -->
<g id="edge6" class="edge">
<title>rna_reads_fruitfly_forward&#45;&gt;quality_control_forward</title>
<path fill="none" stroke="black" d="M390.31,-334.24C391.01,-296.16 392.67,-204.73 393.5,-158.8"/>
<polygon fill="black" stroke="black" points="397.01,-158.74 393.69,-148.68 390.01,-158.62 397.01,-158.74"/>
</g>
<!-- rna_reads_fruitfly_reverse -->
<g id="node7" class="node">
<title>rna_reads_fruitfly_reverse</title>
<polygon fill="#94ddf4" stroke="black" points="490,-334.5 490,-370.5 650,-370.5 650,-334.5 490,-334.5"/>
<text text-anchor="middle" x="570" y="-348.8" font-family="Times,serif" font-size="14.00">rna_reads_fruitfly_reverse</text>
</g>
<!-- rna_reads_fruitfly_reverse&#45;&gt;trim_low_quality_bases -->
<g id="edge9" class="edge">
<title>rna_reads_fruitfly_reverse&#45;&gt;trim_low_quality_bases</title>
<path fill="none" stroke="black" d="M544.64,-334.49C527.41,-323.76 503.71,-310.54 481,-303 451.05,-293.06 417.01,-286.99 386.77,-283.29"/>
<polygon fill="black" stroke="black" points="387,-279.79 376.67,-282.12 386.2,-286.75 387,-279.79"/>
</g>
<!-- quality_control_reverse -->
<g id="node9" class="node">
<title>quality_control_reverse</title>
<ellipse fill="none" stroke="black" cx="603" cy="-130.5" rx="94.48" ry="18"/>
<text text-anchor="middle" x="603" y="-126.8" font-family="Times,serif" font-size="14.00">quality_control_reverse</text>
</g>
<!-- rna_reads_fruitfly_reverse&#45;&gt;quality_control_reverse -->
<g id="edge8" class="edge">
<title>rna_reads_fruitfly_reverse&#45;&gt;quality_control_reverse</title>
<path fill="none" stroke="black" d="M572.59,-334.24C578.3,-296.16 592.02,-204.73 598.9,-158.8"/>
<polygon fill="black" stroke="black" points="602.4,-159.09 600.42,-148.68 595.48,-158.05 602.4,-159.09"/>
</g>
<!-- quality_report_forward -->
<g id="node11" class="node">
<title>quality_report_forward</title>
<polygon fill="#94ddf4" stroke="black" points="322.5,-39.5 322.5,-75.5 465.5,-75.5 465.5,-39.5 322.5,-39.5"/>
<text text-anchor="middle" x="394" y="-53.8" font-family="Times,serif" font-size="14.00">quality_report_forward</text>
</g>
<!-- quality_control_forward&#45;&gt;quality_report_forward -->
<g id="edge11" class="edge">
<title>quality_control_forward&#45;&gt;quality_report_forward</title>
<path fill="none" stroke="black" d="M394,-112.31C394,-104.29 394,-94.55 394,-85.57"/>
<polygon fill="black" stroke="black" points="397.5,-85.53 394,-75.53 390.5,-85.53 397.5,-85.53"/>
</g>
<!-- quality_report_reverse -->
<g id="node12" class="node">
<title>quality_report_reverse</title>
<polygon fill="#94ddf4" stroke="black" points="483.5,-39.5 483.5,-75.5 622.5,-75.5 622.5,-39.5 483.5,-39.5"/>
<text text-anchor="middle" x="553" y="-53.8" font-family="Times,serif" font-size="14.00">quality_report_reverse</text>
</g>
<!-- quality_control_reverse&#45;&gt;quality_report_reverse -->
<g id="edge12" class="edge">
<title>quality_control_reverse&#45;&gt;quality_report_reverse</title>
<path fill="none" stroke="black" d="M590.9,-112.31C584.88,-103.77 577.49,-93.27 570.83,-83.82"/>
<polygon fill="black" stroke="black" points="573.61,-81.69 564.99,-75.53 567.89,-85.72 573.61,-81.69"/>
</g>
</g>
</svg>
